---------------------------------------------------------------------------------
                                                                                
           SSSSSSSSSSSSSSS       444444444                 AAA                  
         SS:::::::::::::::S     4::::::::4                A:::A                 
        S:::::SSSSSS::::::S    4:::::::::4               A:::::A                
        S:::::S     SSSSSSS   4::::44::::4              A:::::::A               
        S:::::S              4::::4 4::::4             A:::::::::A              
        S:::::S             4::::4  4::::4            A:::::A:::::A             
         S::::SSSS         4::::4   4::::4           A:::::A A:::::A            
          SS::::::SSSSS   4::::444444::::444        A:::::A   A:::::A           
            SSS::::::::SS 4::::::::::::::::4       A:::::A     A:::::A          
               SSSSSS::::S4444444444:::::444      A:::::AAAAAAAAA:::::A         
                    S:::::S         4::::4       A:::::::::::::::::::::A        
                    S:::::S         4::::4      A:::::AAAAAAAAAAAAA:::::A       
        SSSSSSS     S:::::S         4::::4     A:::::A             A:::::A      
        S::::::SSSSSS:::::S       44::::::44  A:::::A               A:::::A     
        S:::::::::::::::SS        4::::::::4 A:::::A                 A:::::A    
         SSSSSSSSSSSSSSS          4444444444AAAAAAA                   AAAAAAA   
                                                                                
                                                                                
---------------------------------------------------------------------------------

                TNA.Final.Resolution.Before.The.Bell.WEBRip.x264-wC              

---------------------------------------------------------------------------------

General
Complete name                    : TNA.Final.Resolution.Before.The.Bell
Format                           : Flash Video
File size                        : 130 MiB
Duration                         : 30mn 0s
Overall bit rate                 : 607 Kbps
httphostheader                   :

Video
Format                           : AVC
Format/Info                      : Advanced Video Codec
Format profile                   : Main@L2.0
Format settings, CABAC           : Yes
Format settings, ReFrames        : 3 frames
Duration                         : 30mn 0s
Bit rate                         : 501 Kbps
Width                            : 320 pixels
Height                           : 240 pixels
Display aspect ratio             : 4:3
Frame rate mode                  : Constant
Frame rate                       : 29.970 fps
Color space                      : YUV
Chroma subsampling               : 4:2:0
Bit depth                        : 8 bits
Scan type                        : Progressive
Bits/(Pixel*Frame)               : 0.218
Stream size                      : 108 MiB (83%)

Audio
Format                           : AAC
Format/Info                      : Advanced Audio Codec
Format version                   : Version 4
Format profile                   : LC
Duration                         : 30mn 0s
Bit rate                         : 96.7 Kbps
Channel(s)                       : 2 channels
Channel positions                : Front: L R
Sampling rate                    : 44.1 KHz
Bit depth                        : 16 bits
Compression mode                 : Lossy
Stream size                      : 20.8 MiB (16%)

---------------------------------------------------------------------------------

Join us at:  http://www.scene4all.net/	       

Enjoy!!!